<?xml version="1.0" encoding="UTF-8" standalone="no"?> <!-- Created with Vectornator for iOS (http://vectornator.io/) --><!DOCTYPE svg PUBLIC "-//W3C//DTD SVG 1.1//EN" "http://www.w3.org/Graphics/SVG/1.1/DTD/svg11.dtd">
<svg height="100%" style="fill-rule:nonzero;clip-rule:evenodd;stroke-linecap:round;stroke-linejoin:round;" xmlns:xlink="http://www.w3.org/1999/xlink" xmlns="http://www.w3.org/2000/svg" xml:space="preserve" width="100%" xmlns:vectornator="http://vectornator.io" version="1.1" viewBox="0 0 500 500">
<metadata>
<vectornator:setting key="DimensionsVisible" value="1"/>
<vectornator:setting key="PencilOnly" value="0"/>
<vectornator:setting key="SnapToPoints" value="0"/>
<vectornator:setting key="GuidesVisible" value="1"/>
<vectornator:setting key="RulersVisible" value="1"/>
<vectornator:setting key="OutlineMode" value="0"/>
<vectornator:setting key="SnapToEdges" value="0"/>
<vectornator:setting key="CMYKEnabledKey" value="0"/>
<vectornator:setting key="DisplayWhiteBackground" value="0"/>
<vectornator:setting key="doHistoryDisabled" value="0"/>
<vectornator:setting key="TimeLapseWatermarkDisabled" value="0"/>
<vectornator:setting key="SnapToGuides" value="1"/>
<vectornator:setting key="Units" value="Pixels"/>
<vectornator:setting key="SnapToGrid" value="0"/>
<vectornator:setting key="IsolateActiveLayer" value="0"/>
<vectornator:setting key="DynamicGuides" value="0"/>
</metadata>
<defs/>
<g id="Layer 1" vectornator:layerName="Layer 1">
<path stroke="#000000" stroke-width="6.07247" d="M266.846+105.336C237.856+105.869+193.37+119.503+169.678+153.92C146.484+187.611+131.836+275.257+123.047+306.263C100.95+384.215+136.918+439.786+179.932+448.841C244.873+462.513+305.42+456.166+342.529+449.574C415.346+436.639+424.013+382.21+405.273+306.263C395.996+268.666+375.354+182.97+357.91+155.384C336.914+122.181+301.063+104.706+266.846+105.336Z" fill="#95af91" stroke-linecap="round" opacity="1" stroke-linejoin="round"/>
</g>
<g id="Layer 5" vectornator:layerName="Layer 5">
<path stroke="#000000" stroke-width="6.07247" d="M262.695+139.393C263.459+142.405+262.428+147.159+262.207+150.257C262.125+151.405+262.748+153.161+261.719+153.675C260.602+154.234+261.304+153.322+260.498+153.187C259.769+153.066+258.771+153.8+258.057+153.92C254.904+154.445+251.702+155.033+248.535+155.384C247.402+155.51+238.358+155.811+238.037+157.093C237.79+158.084+239.815+159.714+240.479+160.267C243.178+162.517+246.336+165.254+249.512+166.615C250.34+166.97+253.216+167.804+253.418+168.812C254.513+174.29+252.249+180.262+251.709+185.658C251.665+186.102+250.977+190.394+251.709+190.541C253.323+190.863+255.385+188.091+256.592+187.367C260.344+185.115+263.728+182.672+266.846+179.554C267.785+178.615+269.638+176.06+271.24+176.381C274.111+176.955+276.641+178.416+279.297+179.554C283.089+181.179+286.952+182.536+290.527+184.681C291.555+185.298+294.495+187.824+295.898+187.123C296.635+186.755+294.613+182.629+294.434+182.24C292.929+178.98+291.386+175.775+288.818+173.207C287.816+172.204+285.129+169.951+285.4+168.324C285.937+165.102+288.621+162.963+290.527+160.511C293.185+157.094+295.752+153.822+298.828+150.746C300.127+149.447+301.271+147.937+302.734+146.839C302.735+146.839+305.516+144.813+305.176+144.642C304.901+144.505+303.301+145.283+302.979+145.375C301.31+145.851+299.813+146.227+298.096+146.595C294.444+147.378+290.772+147.572+287.109+148.304C284.553+148.816+281.244+150.305+278.564+149.769C277.3+149.516+276.683+148.376+275.879+147.572C274.334+146.027+272.399+144.687+270.996+142.933C269.579+141.161+268.65+139.122+267.09+137.562C266.079+136.551+265.036+136.169+263.916+135.609C263.45+135.376+263.308+134.02+262.939+134.388C262.521+134.807+262.602+139.027+262.695+139.393Z" fill="#e4ff08" stroke-linecap="round" opacity="1" stroke-linejoin="round"/>
<path stroke="#000000" stroke-width="6.07247" d="M159.668+172.718C163.459+172.718+166.459+171.472+170.166+171.254C176.106+170.904+182.114+171.36+187.988+170.521C190.848+170.113+193.905+170.765+196.777+170.765C205.522+170.765+214.441+171.246+223.145+170.521C228.293+170.092+234.853+169.421+239.99+170.277C243.611+170.88+247.22+170.96+250.732+169.789" fill="none" stroke-linecap="round" opacity="1" stroke-linejoin="round"/>
<path stroke="#000000" stroke-width="6.07247" d="M287.354+168.568C291.11+170.446+300.062+168.812+304.443+168.812C312.85+168.812+321.204+168.324+329.59+168.324C334.276+168.324+339.353+169.148+343.994+168.568C348.305+168.029+357.116+166.676+361.328+168.08" fill="none" stroke-linecap="round" opacity="1" stroke-linejoin="round"/>
<path stroke="#000000" stroke-width="6.07247" d="M190.063+248.28C190.661+246.965+190.087+251.602+191.895+248.89C192.037+248.676+192.175+248.413+192.139+248.158C191.687+244.997+189.588+249.327+190.063+248.28Z" fill="none" stroke-linecap="round" opacity="1" stroke-linejoin="round"/>
<path stroke="#000000" stroke-width="6.07247" d="M339.355+246.571C338.47+249.114+341.784+245.151+340.088+245.716C339.445+245.931+340.136+247.377+340.82+246.693C341.295+246.218+340.063+244.539+339.355+246.571Z" fill="none" stroke-linecap="round" opacity="1" stroke-linejoin="round"/>
<path stroke="#000000" stroke-width="6.07247" d="M149.658+214.222C154.959+219.524+165.451+216.219+166.504+208.851C166.692+207.532+167.257+205.224+166.504+203.968C164.554+200.718+160.884+199.247+157.471+198.109C155.368+197.408+154.091+196.727+151.855+197.621" fill="#d88585" stroke-linecap="round" opacity="1" stroke-linejoin="round"/>
<path stroke="#000000" stroke-width="6.07247" d="M142.578+243.763C143.229+243.763+145.508+243.763+145.508+243.763C148.423+244.436+150.542+254.301+149.17+256.703C145.883+262.455+140.592+264.027+134.277+264.027" fill="#d88585" stroke-linecap="round" opacity="1" stroke-linejoin="round"/>
<path stroke="#000000" stroke-width="6.07247" d="M155.64+284.413C155.193+284.876+154.604+285.18+154.053+285.511C151.394+287.106+151.219+293.832+152.1+296.254C154.123+301.818+164.199+308.839+169.189+302.601C173.66+297.013+169.744+288.17+164.551+284.535C161.654+282.507+158.213+281.743+155.64+284.413Z" fill="#d88585" stroke-linecap="round" opacity="1" stroke-linejoin="round"/>
<path stroke="#000000" stroke-width="6.07247" d="M197.021+189.32C196.133+189.895+194.972+189.954+194.092+190.541C189.815+193.392+191.712+200.867+194.336+203.968C197.41+207.602+201.742+206.991+205.322+204.945C212.049+201.101+210.996+188.552+202.393+188.099C199.762+187.961+199.164+187.933+197.021+189.32Z" fill="#d88585" stroke-linecap="round" opacity="1" stroke-linejoin="round"/>
<path stroke="#000000" stroke-width="6.07247" d="M234.741+211.537C233.918+211.765+232.963+211.2+232.178+211.537C230.432+212.285+230.762+219.442+231.201+220.57C233.771+227.178+239.654+230.771+246.094+226.673C247.129+226.015+248.921+225.169+249.512+223.988C253.307+216.397+241.028+209.791+234.741+211.537Z" fill="#d88585" stroke-linecap="round" opacity="1" stroke-linejoin="round"/>
<path stroke="#000000" stroke-width="6.07247" d="M239.136+262.684C230.748+267.377+236.751+285.91+247.314+280.629C259.506+274.533+248.331+257.54+239.136+262.684Z" fill="#d88585" stroke-linecap="round" opacity="1" stroke-linejoin="round"/>
<path stroke="#000000" stroke-width="6.07247" d="M206.665+291.859C204.003+294.326+201.137+298.835+202.393+302.601C204.612+309.26+213.774+310.72+218.994+307.24C222.544+304.873+222.586+296.73+220.215+293.568C219.264+292.3+217.469+291.394+216.064+290.638C214.435+289.761+211.142+287.782+209.229+289.173C208.228+289.901+207.573+291.018+206.665+291.859Z" fill="#d88484" stroke-linecap="round" opacity="1" stroke-linejoin="round"/>
<path stroke="#000000" stroke-width="6.07247" d="M362.793+192.006C360.909+191.378+346.689+196.775+344.727+196.644C339.057+196.266+318.15+192.459+313.477+197.132C310.279+200.33+311.036+204.945+306.641+207.142C299.737+210.594+290.893+207.632+288.33+217.884C287.56+220.966+286.851+225.022+288.574+227.894C290.188+230.584+292.236+231.48+292.236+234.974C292.236+241.205+282.044+243.698+281.494+250.843C280.844+259.296+291.549+259.822+295.166+265.248C298.678+270.515+293.023+277.347+296.143+282.338C297.473+284.466+301.397+286.882+303.711+287.709C305.75+288.437+308.221+287.353+309.814+289.173C313.617+293.519+313.519+300.432+315.918+305.531C316.588+306.955+317.704+308.83+319.336+309.193C323.013+310.01+327.963+308.928+331.055+306.996C332.482+306.104+333.685+304.806+335.449+304.554C337.839+304.213+339.387+306.621+341.553+307.24C345.818+308.458+350.365+307.713+354.004+305.287C356.911+303.349+359.981+300.412+361.572+297.23C362.35+295.674+362.04+292.803+363.525+291.615C364.507+290.83+367.514+291.278+368.652+291.127C371.228+290.783+374.465+290.137+376.709+288.685C381.021+285.895+383.204+281.327+382.812+276.234C382.722+275.056+381.836+273.429+381.836+272.328C381.836+272.146+381.929+271.94+382.08+271.839C384.478+270.241+391.565+267.218+393.066+264.515C394.035+262.772+375.881+205.815+376.465+203.48" fill="#e4ff08" stroke-linecap="round" opacity="1" stroke-linejoin="round"/>
<path stroke="#000000" stroke-width="6.07247" d="M339.6+196.4C342.593+195.801+345.673+196.405+348.633+195.912C352.032+195.345+357.318+189.746+361.084+192.006C363.164+193.254+363.425+196.565+364.99+198.353C367.563+201.293+371.097+202.016+374.756+202.748" fill="none" stroke-linecap="round" opacity="1" stroke-linejoin="round"/>
<path stroke="#000000" stroke-width="6.07247" d="M153.564+408.07C155.187+408.881+156.209+411.584+157.959+412.709C161.723+415.128+166.164+416.551+169.922+419.056C172.102+420.51+173.993+423.343+176.514+424.183C183.342+426.459+190.04+429.03+197.021+430.775C204.695+432.693+212.426+432.172+220.215+432.728C225.762+433.124+231.295+433.977+236.816+434.437C243.04+434.956+249.383+434.022+255.615+434.437C262.523+434.898+269.914+435.177+276.855+434.681C288.711+433.834+300.808+431.747+312.5+429.554C322.154+427.744+332.061+426.793+341.797+425.648C346.426+425.104+351.441+424.927+355.957+423.695C359.619+422.696+362.581+419.764+365.479+417.591C368.358+415.432+371.426+412.524+373.779+409.779C375.925+407.276+376.982+404.379+379.395+401.966C380.315+401.046+386.001+394.635+385.01+395.13" fill="none" stroke-linecap="round" opacity="1" stroke-linejoin="round"/>
<path stroke="#000000" stroke-width="6.07247" d="M160.4+327.015C158.119+328.536+155.518+330.189+153.564+332.142C152.27+333.437+151.346+335.138+149.902+336.293C148.818+337.16+145.996+338.503+145.996+340.199C145.996+341.753+148.41+343.756+149.414+344.593C151.009+345.923+152.828+347.275+154.297+348.744C156.652+351.099+157.867+354.756+160.156+357.045" fill="#3dd317" stroke-linecap="round" opacity="1" stroke-linejoin="round"/>
<path stroke="#000000" stroke-width="6.07247" d="M160.4+326.527C164.526+326.527+166.281+330.21+168.945+332.875C171.222+335.151+173.111+337.198+175.781+338.978C176.301+339.325+178.223+340.146+178.223+340.931C178.223+341.962+175.636+344.2+175.049+345.082C171.331+350.658+164.652+354.157+161.621+360.218" fill="#73fff7" stroke-linecap="round" opacity="1" stroke-linejoin="round"/>
<path stroke="#000000" stroke-width="6.07247" d="M157.227+173.451C150.896+173.451+144.157+171.504+138.672+175.892C132.169+181.094+131.678+191.13+133.545+198.597C134.079+200.732+134.172+203.677+135.986+205.189C138.911+207.627+143.449+206.926+146.973+207.631" fill="#ff5757" stroke-linecap="round" opacity="1" stroke-linejoin="round"/>
<path stroke="#000000" stroke-width="6.07247" d="M366.455+168.568C366.455+166.638+375.056+168.304+376.465+168.568C383.351+169.859+390.628+171.017+393.555+178.334C394.687+181.163+395.857+184.385+396.484+187.367C397.002+189.827+396.973+192.436+396.973+194.935C396.973+197.387+396.831+200.076+396.484+202.504C395.724+207.823+382.696+207.567+379.15+209.339" fill="#ff5757" stroke-linecap="round" opacity="1" stroke-linejoin="round"/>
<path stroke="#000000" stroke-width="6.07247" d="M133.057+177.845C130.291+176.462+125.295+178.309+122.559+178.822C110.855+181.016+97.1422+190.687+94.9707+202.992C93.4364+211.686+97.784+219.184+98.3887+227.65C98.6383+231.145+97.8675+234.393+96.6797+237.66C96.3425+238.587+94.9639+241.064+95.459+242.054C96.0578+243.252+100.581+242.787+101.807+242.787C108.805+242.787+113.678+239.745+119.629+236.439C124.135+233.936+126.843+229.994+129.883+225.941C131.854+223.313+133.91+219.486+134.277+216.175C134.669+212.653+133.529+209.449+134.033+205.922" fill="#a27979" stroke-linecap="round" opacity="1" stroke-linejoin="round"/>
<path stroke="#000000" stroke-width="6.07247" d="M394.287+172.963C401.264+172.963+408.64+171.991+415.527+173.207C426.524+175.147+437.009+182.307+439.453+193.714C440.081+196.646+440.129+200.232+439.941+203.236C439.628+208.244+438.225+213.205+436.523+217.884C435.537+220.598+434.082+223.252+433.838+226.185C433.465+230.656+432.988+235.753+434.326+240.101C434.79+241.609+435.427+243.076+436.035+244.496C436.222+244.932+436.918+245.266+436.768+245.716C436.487+246.558+432.318+245.801+431.641+245.716C427.027+245.14+422.783+244.259+418.701+241.81C416.474+240.474+415.196+238.623+413.33+236.927C406.875+231.059+402.149+224.467+397.949+216.908C396.121+213.617+393.755+208.983+395.02+205.189" fill="#a27979" stroke-linecap="round" opacity="1" stroke-linejoin="round"/>
<path stroke="#000000" stroke-width="6.07247" d="M260.986+68.9586C258.565+71.2849+254.539+71.1493+252.441+74.0856C250.966+76.1509+251.026+79.0583+250.732+81.4098C248.987+95.3717+257.995+103.627+271.484+103.627C275.185+103.627+279.642+102.648+282.715+100.453C285.119+98.7356+286.695+95.6326+288.086+93.1286C292.791+84.6589+289.518+76.1363+282.227+70.6676C280.401+69.2983+278.663+68.0659+276.367+67.7379C271.442+67.0343+265.451+64.6684+260.986+68.9586Z" fill="#73fff7" stroke-linecap="round" opacity="1" stroke-linejoin="round"/>
<path stroke="#000000" stroke-width="6.07247" d="M260.254+85.8043C261.767+86.5611+264.389+86.0485+266.113+86.0485C270.207+86.0485+277.28+86.8128+280.762+85.0719" fill="none" stroke-linecap="round" opacity="1" stroke-linejoin="round"/>
<path stroke="#000000" stroke-width="6.07247" d="M235.84+433.461C240.739+431.011+245.175+428.369+248.291+423.695C249.226+422.292+249.601+420.8+250.244+419.3C250.488+418.731+250.746+418.167+250.977+417.591C251.044+417.422+251.092+416.974+251.221+417.103C251.736+417.619+251.573+418.821+252.441+419.545C258.326+424.448+264.378+424.562+270.996+421.254C272.749+420.377+274.488+419.305+276.123+418.324C276.296+418.22+277.335+416.859+277.344+416.859C278.162+416.859+277.363+418.514+277.588+419.3C277.917+420.453+279.24+422.464+280.029+423.451C282.87+427.001+286.304+430.702+289.551+433.949" fill="#79fe79" stroke-linecap="round" opacity="1" stroke-linejoin="round"/>
<path stroke="#000000" stroke-width="6.07247" d="M243.652+437.367C246.415+438.748+247.988+442.464+250.977+443.959C252.028+444.484+253.291+444.376+254.395+444.691C264.446+447.563+278.306+446.184+283.447+435.902" fill="#79fe79" stroke-linecap="round" opacity="1" stroke-linejoin="round"/>
</g>
<g id="Layer 2" vectornator:layerName="Layer 2">
<path stroke="#000000" stroke-width="6.07247" d="M163.574+264.759C175.293+283.558+196.777+288.929+215.332+265.248C229.198+247.551+217.914+212.309+183.105+220.082C157.959+225.697+152.379+246.8+163.574+264.759Z" fill="#ffffff" stroke-linecap="round" opacity="1" stroke-linejoin="round"/>
</g>
<g id="Layer 3" vectornator:layerName="Layer 3">
<path stroke="#000000" stroke-width="6.07247" d="M364.144+261.357C352.641+280.258+331.295+285.817+312.611+262.299C298.648+244.725+309.573+209.385+344.302+216.852C369.391+222.246+375.134+243.3+364.144+261.357Z" fill="#ffffff" stroke-linecap="round" opacity="1" stroke-linejoin="round"/>
</g>
<g id="Layer 4" vectornator:layerName="Layer 4">
<path stroke="#000000" stroke-width="6.07247" d="M187.256+244.374C184.679+244.334+181.03+248.522+181.396+251.088C181.827+254.1+187.764+256.944+190.674+256.459C193.984+255.907+196.781+251.093+194.58+248.158C193.3+246.451+192.166+246.591+190.674+245.472C189.495+244.589+188.82+244.397+187.256+244.374Z" fill="#3dd317" stroke-linecap="round" opacity="1" stroke-linejoin="round"/>
<path stroke="#000000" stroke-width="6.07247" d="M335.571+240.467C324.62+242.658+331.787+252.837+339.355+251.576C345.047+250.627+341.704+242.938+339.355+240.589C338.415+239.649+336.554+240.271+335.571+240.467Z" fill="#3dd317" stroke-linecap="round" opacity="1" stroke-linejoin="round"/>
<path stroke="#000000" stroke-width="6.07247" d="M251.953+170.521C251.606+171.215+251.58+170.881+252.197+171.498" fill="none" stroke-linecap="round" opacity="1" stroke-linejoin="round"/>
<path stroke="#000000" stroke-width="6.07247" d="M160.645+171.986C160.4+171.986+159.668+171.986+159.912+171.986C160.238+171.986+160.563+171.986+160.889+171.986" fill="none" stroke-linecap="round" opacity="1" stroke-linejoin="round"/>
<path stroke="#000000" stroke-width="6.07247" d="M250.732+171.254L162.598+172.963L191.65+131.947L240.479+110.463L281.25+107.533L320.312+120.228L346.68+141.468L363.525+166.127L288.574+168.812L305.664+144.886L279.297+150.746L262.695+132.191L261.719+152.943L236.084+156.605L250.732+171.254Z" fill="#73fff7" stroke-linecap="round" opacity="1" stroke-linejoin="round"/>
</g>
</svg>
